<svg width="32" height="32" viewBox="0 0 32 32" fill="none" xmlns="http://www.w3.org/2000/svg">
<path d="M20.0208 21.4351C20.4113 21.8256 21.0445 21.8256 21.435 21.4351C21.8256 21.0445 21.8255 20.4114 21.435 20.0209L17.8995 16.4853L21.435 12.9498C21.8256 12.5593 21.8255 11.9261 21.435 11.5356C21.0445 11.145 20.4113 11.145 20.0208 11.5356L16.4853 15.0711L12.9497 11.5356C12.5592 11.1451 11.9261 11.145 11.5355 11.5356C11.145 11.9261 11.145 12.5593 11.5355 12.9498L15.071 16.4853L11.5355 20.0209C11.145 20.4114 11.145 21.0445 11.5355 21.4351C11.926 21.8256 12.5592 21.8256 12.9497 21.4351L16.4853 17.8995L20.0208 21.4351Z" fill="#F17482"/>
</svg>
