<svg version="1" xmlns="http://www.w3.org/2000/svg" width="373.333" height="373.333" viewBox="0 0 280.000000 280.000000"><path d="M160.5 23.5c-10.7 2-15.1 4.9-20.1 13.3-.9 1.6-3.6 4.1-6 5.6-15.4 9.7-23.6 27.6-19.9 43.1 2 8.5 4.1 12.1 10.4 18.3 8.1 8 13.3 10.7 35.5 18.8 7.3 2.7 16.2 8.8 19.1 13.3 8.2 12.3-2 33.9-20.2 42.9-7.6 3.7-15.3 5.8-33.3 8.9-2.5.4-24.7.8-49.5.8-43.7.1-45.2.2-50.4 2.3-10.6 4.2-18.4 14-19 23.7-.4 7.5 5.3 17.2 12.3 21 2 1.1 3.6 2.2 3.6 2.6 0 .3-3.7 1.1-8.2 1.8C6.7 241.1 0 243.4 0 245c0 4 17.6 7.4 49 9.5 4.7.4 10.8.8 13.5 1 23.3 2 97.8 2.6 133.5 1.2 28.5-1.1 41.2-1.7 45-2.1 4.2-.4 6 .2 6 2 0 .8.7 1.4 1.5 1.4s1.5-.9 1.5-1.9c0-2.2 1.3-2.8 8.5-3.6 2.8-.4 5.7-.8 6.5-1 .8-.3 3.3-.7 5.5-1.1 4.2-.6 9.5-3 9.5-4.2-.1-2-2.3-3.1-10.2-5.1-8.6-2.1-12.7-2.8-17.9-3-1.9-.1-3-.9-3.8-2.9-1.6-3.8-6.8-9.4-11.9-12.7l-4.3-2.8 4.2-2.7c6.2-4.2 9.3-9.2 9.5-15.4.3-8.3-2.9-14.2-9.6-17.6-3.6-1.8-14.8-2.1-24-.5-2.2.4-4.1.6-4.2.6-.2 0-3.1.8-6.5 1.8-3.5 1.1-6.3 1.8-6.3 1.7 0-.2 1-1.4 2.3-2.8 5.4-6.1 7.2-8.5 10.8-15.2 4.6-8.6 6.7-16.9 6.3-25.6-.6-18.4-13.1-30.7-42.9-42.6-23.3-9.2-29.6-16-28.6-31.1 0-1.2 1.2-3.5 2.6-5.1 2-2.4 3.2-2.9 7.2-2.9 5.4-.1 16.5-1.1 20.3-1.8 1.4-.3 4.5-.8 7-1.1 11-1.4 22.2-5 27.1-8.5 2.2-1.6 17.2 5.5 23.2 11 4 3.7 4.5 3.9 5 2.2.2-1.1 1.5-2.1 2.8-2.3 3.8-.5-9.9-8.4-19.5-11.3-5.5-1.6-8-2.8-7.7-3.7 2-6.7 1.2-10.6-3.4-15.7-5.9-6.5-11.8-8.4-27-8.7-7.6-.1-15.9.3-20 1.1z"/></svg>